<?xml version="1.0" encoding="utf-8" standalone="no"?>
<!DOCTYPE svg PUBLIC "-//W3C//DTD SVG 1.1//EN"
  "http://www.w3.org/Graphics/SVG/1.1/DTD/svg11.dtd">
<svg height="331.674375pt" version="1.1" viewBox="0 0 703.725 331.674375" width="703.725pt" xmlns="http://www.w3.org/2000/svg" xmlns:xlink="http://www.w3.org/1999/xlink">
 <metadata>
  <rdf:RDF xmlns:cc="http://creativecommons.org/ns#" xmlns:dc="http://purl.org/dc/elements/1.1/" xmlns:rdf="http://www.w3.org/1999/02/22-rdf-syntax-ns#">
   <cc:Work>
    <dc:type rdf:resource="http://purl.org/dc/dcmitype/StillImage"/>
    <dc:date>2021-12-10T17:00:40.150302</dc:date>
    <dc:format>image/svg+xml</dc:format>
    <dc:creator>
     <cc:Agent>
      <dc:title>Matplotlib v3.4.3, https://matplotlib.org/</dc:title>
     </cc:Agent>
    </dc:creator>
   </cc:Work>
  </rdf:RDF>
 </metadata>
 <defs>
  <style type="text/css">*{stroke-linecap:butt;stroke-linejoin:round;}</style>
 </defs>
 <g id="figure_1">
  <g id="patch_1">
   <path d="M 0 331.674375 
L 703.725 331.674375 
L 703.725 0 
L 0 0 
z
" style="fill:none;"/>
  </g>
  <g id="axes_1">
   <g id="patch_2">
    <path d="M 26.925 294.118125 
L 331.288636 294.118125 
L 331.288636 22.318125 
L 26.925 22.318125 
z
" style="fill:#ffffff;"/>
   </g>
   <g id="PathCollection_1">
    <defs>
     <path d="M 0 3 
C 0.795609 3 1.55874 2.683901 2.12132 2.12132 
C 2.683901 1.55874 3 0.795609 3 0 
C 3 -0.795609 2.683901 -1.55874 2.12132 -2.12132 
C 1.55874 -2.683901 0.795609 -3 0 -3 
C -0.795609 -3 -1.55874 -2.683901 -2.12132 -2.12132 
C -2.683901 -1.55874 -3 -0.795609 -3 0 
C -3 0.795609 -2.683901 1.55874 -2.12132 2.12132 
C -1.55874 2.683901 -0.795609 3 0 3 
z
" id="mcc5137eb0b" style="stroke:#1f77b4;"/>
    </defs>
    <g clip-path="url(#p1a5f271d5b)">
     <use style="fill:#1f77b4;stroke:#1f77b4;" x="40.759711" xlink:href="#mcc5137eb0b" y="277.590108"/>
     <use style="fill:#1f77b4;stroke:#1f77b4;" x="55.430989" xlink:href="#mcc5137eb0b" y="281.76358"/>
     <use style="fill:#1f77b4;stroke:#1f77b4;" x="60.077178" xlink:href="#mcc5137eb0b" y="245.115146"/>
     <use style="fill:#1f77b4;stroke:#1f77b4;" x="69.068911" xlink:href="#mcc5137eb0b" y="277.217571"/>
     <use style="fill:#1f77b4;stroke:#1f77b4;" x="76.309287" xlink:href="#mcc5137eb0b" y="254.547748"/>
     <use style="fill:#1f77b4;stroke:#1f77b4;" x="145.623799" xlink:href="#mcc5137eb0b" y="194.916724"/>
     <use style="fill:#1f77b4;stroke:#1f77b4;" x="154.63727" xlink:href="#mcc5137eb0b" y="168.286333"/>
     <use style="fill:#1f77b4;stroke:#1f77b4;" x="157.233547" xlink:href="#mcc5137eb0b" y="166.642642"/>
     <use style="fill:#1f77b4;stroke:#1f77b4;" x="161.255895" xlink:href="#mcc5137eb0b" y="177.212103"/>
     <use style="fill:#1f77b4;stroke:#1f77b4;" x="168.153662" xlink:href="#mcc5137eb0b" y="168.620646"/>
     <use style="fill:#1f77b4;stroke:#1f77b4;" x="185.582442" xlink:href="#mcc5137eb0b" y="166.648034"/>
     <use style="fill:#1f77b4;stroke:#1f77b4;" x="187.616826" xlink:href="#mcc5137eb0b" y="176.612025"/>
     <use style="fill:#1f77b4;stroke:#1f77b4;" x="192.232707" xlink:href="#mcc5137eb0b" y="154.863377"/>
     <use style="fill:#1f77b4;stroke:#1f77b4;" x="193.367407" xlink:href="#mcc5137eb0b" y="148.407719"/>
     <use style="fill:#1f77b4;stroke:#1f77b4;" x="198.919497" xlink:href="#mcc5137eb0b" y="131.847805"/>
     <use style="fill:#1f77b4;stroke:#1f77b4;" x="208.942969" xlink:href="#mcc5137eb0b" y="123.16237"/>
     <use style="fill:#1f77b4;stroke:#1f77b4;" x="219.670542" xlink:href="#mcc5137eb0b" y="130.689329"/>
     <use style="fill:#1f77b4;stroke:#1f77b4;" x="221.395" xlink:href="#mcc5137eb0b" y="128.226316"/>
     <use style="fill:#1f77b4;stroke:#1f77b4;" x="241.400839" xlink:href="#mcc5137eb0b" y="118.338428"/>
     <use style="fill:#1f77b4;stroke:#1f77b4;" x="259.579796" xlink:href="#mcc5137eb0b" y="106.046433"/>
     <use style="fill:#1f77b4;stroke:#1f77b4;" x="260.264725" xlink:href="#mcc5137eb0b" y="108.519538"/>
     <use style="fill:#1f77b4;stroke:#1f77b4;" x="263.497019" xlink:href="#mcc5137eb0b" y="66.181167"/>
     <use style="fill:#1f77b4;stroke:#1f77b4;" x="265.64311" xlink:href="#mcc5137eb0b" y="90.792318"/>
     <use style="fill:#1f77b4;stroke:#1f77b4;" x="275.303527" xlink:href="#mcc5137eb0b" y="81.359411"/>
     <use style="fill:#1f77b4;stroke:#1f77b4;" x="286.098847" xlink:href="#mcc5137eb0b" y="80.467571"/>
     <use style="fill:#1f77b4;stroke:#1f77b4;" x="292.381299" xlink:href="#mcc5137eb0b" y="52.938882"/>
     <use style="fill:#1f77b4;stroke:#1f77b4;" x="302.14633" xlink:href="#mcc5137eb0b" y="69.974771"/>
     <use style="fill:#1f77b4;stroke:#1f77b4;" x="307.65258" xlink:href="#mcc5137eb0b" y="49.926998"/>
     <use style="fill:#1f77b4;stroke:#1f77b4;" x="313.136184" xlink:href="#mcc5137eb0b" y="52.373788"/>
     <use style="fill:#1f77b4;stroke:#1f77b4;" x="317.453926" xlink:href="#mcc5137eb0b" y="34.67267"/>
    </g>
   </g>
   <g id="matplotlib.axis_1">
    <g id="xtick_1">
     <g id="line2d_1">
      <path clip-path="url(#p1a5f271d5b)" d="M 34.922572 294.118125 
L 34.922572 22.318125 
" style="fill:none;stroke:#b0b0b0;stroke-linecap:square;stroke-width:0.8;"/>
     </g>
     <g id="line2d_2">
      <defs>
       <path d="M 0 0 
L 0 3.5 
" id="medc381ebbc" style="stroke:#000000;stroke-width:0.8;"/>
      </defs>
      <g>
       <use style="stroke:#000000;stroke-width:0.8;" x="34.922572" xlink:href="#medc381ebbc" y="294.118125"/>
      </g>
     </g>
     <g id="text_1">
      <!-- 0 -->
      <g transform="translate(31.741322 308.716563)scale(0.1 -0.1)">
       <defs>
        <path d="M 2034 4250 
Q 1547 4250 1301 3770 
Q 1056 3291 1056 2328 
Q 1056 1369 1301 889 
Q 1547 409 2034 409 
Q 2525 409 2770 889 
Q 3016 1369 3016 2328 
Q 3016 3291 2770 3770 
Q 2525 4250 2034 4250 
z
M 2034 4750 
Q 2819 4750 3233 4129 
Q 3647 3509 3647 2328 
Q 3647 1150 3233 529 
Q 2819 -91 2034 -91 
Q 1250 -91 836 529 
Q 422 1150 422 2328 
Q 422 3509 836 4129 
Q 1250 4750 2034 4750 
z
" id="DejaVuSans-30" transform="scale(0.015625)"/>
       </defs>
       <use xlink:href="#DejaVuSans-30"/>
      </g>
     </g>
    </g>
    <g id="xtick_2">
     <g id="line2d_3">
      <path clip-path="url(#p1a5f271d5b)" d="M 83.03996 294.118125 
L 83.03996 22.318125 
" style="fill:none;stroke:#b0b0b0;stroke-linecap:square;stroke-width:0.8;"/>
     </g>
     <g id="line2d_4">
      <g>
       <use style="stroke:#000000;stroke-width:0.8;" x="83.03996" xlink:href="#medc381ebbc" y="294.118125"/>
      </g>
     </g>
     <g id="text_2">
      <!-- 1 -->
      <g transform="translate(79.85871 308.716563)scale(0.1 -0.1)">
       <defs>
        <path d="M 794 531 
L 1825 531 
L 1825 4091 
L 703 3866 
L 703 4441 
L 1819 4666 
L 2450 4666 
L 2450 531 
L 3481 531 
L 3481 0 
L 794 0 
L 794 531 
z
" id="DejaVuSans-31" transform="scale(0.015625)"/>
       </defs>
       <use xlink:href="#DejaVuSans-31"/>
      </g>
     </g>
    </g>
    <g id="xtick_3">
     <g id="line2d_5">
      <path clip-path="url(#p1a5f271d5b)" d="M 131.157349 294.118125 
L 131.157349 22.318125 
" style="fill:none;stroke:#b0b0b0;stroke-linecap:square;stroke-width:0.8;"/>
     </g>
     <g id="line2d_6">
      <g>
       <use style="stroke:#000000;stroke-width:0.8;" x="131.157349" xlink:href="#medc381ebbc" y="294.118125"/>
      </g>
     </g>
     <g id="text_3">
      <!-- 2 -->
      <g transform="translate(127.976099 308.716563)scale(0.1 -0.1)">
       <defs>
        <path d="M 1228 531 
L 3431 531 
L 3431 0 
L 469 0 
L 469 531 
Q 828 903 1448 1529 
Q 2069 2156 2228 2338 
Q 2531 2678 2651 2914 
Q 2772 3150 2772 3378 
Q 2772 3750 2511 3984 
Q 2250 4219 1831 4219 
Q 1534 4219 1204 4116 
Q 875 4013 500 3803 
L 500 4441 
Q 881 4594 1212 4672 
Q 1544 4750 1819 4750 
Q 2544 4750 2975 4387 
Q 3406 4025 3406 3419 
Q 3406 3131 3298 2873 
Q 3191 2616 2906 2266 
Q 2828 2175 2409 1742 
Q 1991 1309 1228 531 
z
" id="DejaVuSans-32" transform="scale(0.015625)"/>
       </defs>
       <use xlink:href="#DejaVuSans-32"/>
      </g>
     </g>
    </g>
    <g id="xtick_4">
     <g id="line2d_7">
      <path clip-path="url(#p1a5f271d5b)" d="M 179.274737 294.118125 
L 179.274737 22.318125 
" style="fill:none;stroke:#b0b0b0;stroke-linecap:square;stroke-width:0.8;"/>
     </g>
     <g id="line2d_8">
      <g>
       <use style="stroke:#000000;stroke-width:0.8;" x="179.274737" xlink:href="#medc381ebbc" y="294.118125"/>
      </g>
     </g>
     <g id="text_4">
      <!-- 3 -->
      <g transform="translate(176.093487 308.716563)scale(0.1 -0.1)">
       <defs>
        <path d="M 2597 2516 
Q 3050 2419 3304 2112 
Q 3559 1806 3559 1356 
Q 3559 666 3084 287 
Q 2609 -91 1734 -91 
Q 1441 -91 1130 -33 
Q 819 25 488 141 
L 488 750 
Q 750 597 1062 519 
Q 1375 441 1716 441 
Q 2309 441 2620 675 
Q 2931 909 2931 1356 
Q 2931 1769 2642 2001 
Q 2353 2234 1838 2234 
L 1294 2234 
L 1294 2753 
L 1863 2753 
Q 2328 2753 2575 2939 
Q 2822 3125 2822 3475 
Q 2822 3834 2567 4026 
Q 2313 4219 1838 4219 
Q 1578 4219 1281 4162 
Q 984 4106 628 3988 
L 628 4550 
Q 988 4650 1302 4700 
Q 1616 4750 1894 4750 
Q 2613 4750 3031 4423 
Q 3450 4097 3450 3541 
Q 3450 3153 3228 2886 
Q 3006 2619 2597 2516 
z
" id="DejaVuSans-33" transform="scale(0.015625)"/>
       </defs>
       <use xlink:href="#DejaVuSans-33"/>
      </g>
     </g>
    </g>
    <g id="xtick_5">
     <g id="line2d_9">
      <path clip-path="url(#p1a5f271d5b)" d="M 227.392126 294.118125 
L 227.392126 22.318125 
" style="fill:none;stroke:#b0b0b0;stroke-linecap:square;stroke-width:0.8;"/>
     </g>
     <g id="line2d_10">
      <g>
       <use style="stroke:#000000;stroke-width:0.8;" x="227.392126" xlink:href="#medc381ebbc" y="294.118125"/>
      </g>
     </g>
     <g id="text_5">
      <!-- 4 -->
      <g transform="translate(224.210876 308.716563)scale(0.1 -0.1)">
       <defs>
        <path d="M 2419 4116 
L 825 1625 
L 2419 1625 
L 2419 4116 
z
M 2253 4666 
L 3047 4666 
L 3047 1625 
L 3713 1625 
L 3713 1100 
L 3047 1100 
L 3047 0 
L 2419 0 
L 2419 1100 
L 313 1100 
L 313 1709 
L 2253 4666 
z
" id="DejaVuSans-34" transform="scale(0.015625)"/>
       </defs>
       <use xlink:href="#DejaVuSans-34"/>
      </g>
     </g>
    </g>
    <g id="xtick_6">
     <g id="line2d_11">
      <path clip-path="url(#p1a5f271d5b)" d="M 275.509514 294.118125 
L 275.509514 22.318125 
" style="fill:none;stroke:#b0b0b0;stroke-linecap:square;stroke-width:0.8;"/>
     </g>
     <g id="line2d_12">
      <g>
       <use style="stroke:#000000;stroke-width:0.8;" x="275.509514" xlink:href="#medc381ebbc" y="294.118125"/>
      </g>
     </g>
     <g id="text_6">
      <!-- 5 -->
      <g transform="translate(272.328264 308.716563)scale(0.1 -0.1)">
       <defs>
        <path d="M 691 4666 
L 3169 4666 
L 3169 4134 
L 1269 4134 
L 1269 2991 
Q 1406 3038 1543 3061 
Q 1681 3084 1819 3084 
Q 2600 3084 3056 2656 
Q 3513 2228 3513 1497 
Q 3513 744 3044 326 
Q 2575 -91 1722 -91 
Q 1428 -91 1123 -41 
Q 819 9 494 109 
L 494 744 
Q 775 591 1075 516 
Q 1375 441 1709 441 
Q 2250 441 2565 725 
Q 2881 1009 2881 1497 
Q 2881 1984 2565 2268 
Q 2250 2553 1709 2553 
Q 1456 2553 1204 2497 
Q 953 2441 691 2322 
L 691 4666 
z
" id="DejaVuSans-35" transform="scale(0.015625)"/>
       </defs>
       <use xlink:href="#DejaVuSans-35"/>
      </g>
     </g>
    </g>
    <g id="xtick_7">
     <g id="line2d_13">
      <path clip-path="url(#p1a5f271d5b)" d="M 323.626903 294.118125 
L 323.626903 22.318125 
" style="fill:none;stroke:#b0b0b0;stroke-linecap:square;stroke-width:0.8;"/>
     </g>
     <g id="line2d_14">
      <g>
       <use style="stroke:#000000;stroke-width:0.8;" x="323.626903" xlink:href="#medc381ebbc" y="294.118125"/>
      </g>
     </g>
     <g id="text_7">
      <!-- 6 -->
      <g transform="translate(320.445653 308.716563)scale(0.1 -0.1)">
       <defs>
        <path d="M 2113 2584 
Q 1688 2584 1439 2293 
Q 1191 2003 1191 1497 
Q 1191 994 1439 701 
Q 1688 409 2113 409 
Q 2538 409 2786 701 
Q 3034 994 3034 1497 
Q 3034 2003 2786 2293 
Q 2538 2584 2113 2584 
z
M 3366 4563 
L 3366 3988 
Q 3128 4100 2886 4159 
Q 2644 4219 2406 4219 
Q 1781 4219 1451 3797 
Q 1122 3375 1075 2522 
Q 1259 2794 1537 2939 
Q 1816 3084 2150 3084 
Q 2853 3084 3261 2657 
Q 3669 2231 3669 1497 
Q 3669 778 3244 343 
Q 2819 -91 2113 -91 
Q 1303 -91 875 529 
Q 447 1150 447 2328 
Q 447 3434 972 4092 
Q 1497 4750 2381 4750 
Q 2619 4750 2861 4703 
Q 3103 4656 3366 4563 
z
" id="DejaVuSans-36" transform="scale(0.015625)"/>
       </defs>
       <use xlink:href="#DejaVuSans-36"/>
      </g>
     </g>
    </g>
    <g id="text_8">
     <!-- x -->
     <g transform="translate(176.147443 322.394687)scale(0.1 -0.1)">
      <defs>
       <path d="M 3513 3500 
L 2247 1797 
L 3578 0 
L 2900 0 
L 1881 1375 
L 863 0 
L 184 0 
L 1544 1831 
L 300 3500 
L 978 3500 
L 1906 2253 
L 2834 3500 
L 3513 3500 
z
" id="DejaVuSans-78" transform="scale(0.015625)"/>
      </defs>
      <use xlink:href="#DejaVuSans-78"/>
     </g>
    </g>
   </g>
   <g id="matplotlib.axis_2">
    <g id="ytick_1">
     <g id="line2d_15">
      <path clip-path="url(#p1a5f271d5b)" d="M 26.925 270.576515 
L 331.288636 270.576515 
" style="fill:none;stroke:#b0b0b0;stroke-linecap:square;stroke-width:0.8;"/>
     </g>
     <g id="line2d_16">
      <defs>
       <path d="M 0 0 
L -3.5 0 
" id="m967f2d7ad1" style="stroke:#000000;stroke-width:0.8;"/>
      </defs>
      <g>
       <use style="stroke:#000000;stroke-width:0.8;" x="26.925" xlink:href="#m967f2d7ad1" y="270.576515"/>
      </g>
     </g>
     <g id="text_9">
      <!-- 4 -->
      <g transform="translate(13.5625 274.375734)scale(0.1 -0.1)">
       <use xlink:href="#DejaVuSans-34"/>
      </g>
     </g>
    </g>
    <g id="ytick_2">
     <g id="line2d_17">
      <path clip-path="url(#p1a5f271d5b)" d="M 26.925 227.437333 
L 331.288636 227.437333 
" style="fill:none;stroke:#b0b0b0;stroke-linecap:square;stroke-width:0.8;"/>
     </g>
     <g id="line2d_18">
      <g>
       <use style="stroke:#000000;stroke-width:0.8;" x="26.925" xlink:href="#m967f2d7ad1" y="227.437333"/>
      </g>
     </g>
     <g id="text_10">
      <!-- 6 -->
      <g transform="translate(13.5625 231.236551)scale(0.1 -0.1)">
       <use xlink:href="#DejaVuSans-36"/>
      </g>
     </g>
    </g>
    <g id="ytick_3">
     <g id="line2d_19">
      <path clip-path="url(#p1a5f271d5b)" d="M 26.925 184.29815 
L 331.288636 184.29815 
" style="fill:none;stroke:#b0b0b0;stroke-linecap:square;stroke-width:0.8;"/>
     </g>
     <g id="line2d_20">
      <g>
       <use style="stroke:#000000;stroke-width:0.8;" x="26.925" xlink:href="#m967f2d7ad1" y="184.29815"/>
      </g>
     </g>
     <g id="text_11">
      <!-- 8 -->
      <g transform="translate(13.5625 188.097369)scale(0.1 -0.1)">
       <defs>
        <path d="M 2034 2216 
Q 1584 2216 1326 1975 
Q 1069 1734 1069 1313 
Q 1069 891 1326 650 
Q 1584 409 2034 409 
Q 2484 409 2743 651 
Q 3003 894 3003 1313 
Q 3003 1734 2745 1975 
Q 2488 2216 2034 2216 
z
M 1403 2484 
Q 997 2584 770 2862 
Q 544 3141 544 3541 
Q 544 4100 942 4425 
Q 1341 4750 2034 4750 
Q 2731 4750 3128 4425 
Q 3525 4100 3525 3541 
Q 3525 3141 3298 2862 
Q 3072 2584 2669 2484 
Q 3125 2378 3379 2068 
Q 3634 1759 3634 1313 
Q 3634 634 3220 271 
Q 2806 -91 2034 -91 
Q 1263 -91 848 271 
Q 434 634 434 1313 
Q 434 1759 690 2068 
Q 947 2378 1403 2484 
z
M 1172 3481 
Q 1172 3119 1398 2916 
Q 1625 2713 2034 2713 
Q 2441 2713 2670 2916 
Q 2900 3119 2900 3481 
Q 2900 3844 2670 4047 
Q 2441 4250 2034 4250 
Q 1625 4250 1398 4047 
Q 1172 3844 1172 3481 
z
" id="DejaVuSans-38" transform="scale(0.015625)"/>
       </defs>
       <use xlink:href="#DejaVuSans-38"/>
      </g>
     </g>
    </g>
    <g id="ytick_4">
     <g id="line2d_21">
      <path clip-path="url(#p1a5f271d5b)" d="M 26.925 141.158968 
L 331.288636 141.158968 
" style="fill:none;stroke:#b0b0b0;stroke-linecap:square;stroke-width:0.8;"/>
     </g>
     <g id="line2d_22">
      <g>
       <use style="stroke:#000000;stroke-width:0.8;" x="26.925" xlink:href="#m967f2d7ad1" y="141.158968"/>
      </g>
     </g>
     <g id="text_12">
      <!-- 10 -->
      <g transform="translate(7.2 144.958186)scale(0.1 -0.1)">
       <use xlink:href="#DejaVuSans-31"/>
       <use x="63.623047" xlink:href="#DejaVuSans-30"/>
      </g>
     </g>
    </g>
    <g id="ytick_5">
     <g id="line2d_23">
      <path clip-path="url(#p1a5f271d5b)" d="M 26.925 98.019785 
L 331.288636 98.019785 
" style="fill:none;stroke:#b0b0b0;stroke-linecap:square;stroke-width:0.8;"/>
     </g>
     <g id="line2d_24">
      <g>
       <use style="stroke:#000000;stroke-width:0.8;" x="26.925" xlink:href="#m967f2d7ad1" y="98.019785"/>
      </g>
     </g>
     <g id="text_13">
      <!-- 12 -->
      <g transform="translate(7.2 101.819004)scale(0.1 -0.1)">
       <use xlink:href="#DejaVuSans-31"/>
       <use x="63.623047" xlink:href="#DejaVuSans-32"/>
      </g>
     </g>
    </g>
    <g id="ytick_6">
     <g id="line2d_25">
      <path clip-path="url(#p1a5f271d5b)" d="M 26.925 54.880603 
L 331.288636 54.880603 
" style="fill:none;stroke:#b0b0b0;stroke-linecap:square;stroke-width:0.8;"/>
     </g>
     <g id="line2d_26">
      <g>
       <use style="stroke:#000000;stroke-width:0.8;" x="26.925" xlink:href="#m967f2d7ad1" y="54.880603"/>
      </g>
     </g>
     <g id="text_14">
      <!-- 14 -->
      <g transform="translate(7.2 58.679821)scale(0.1 -0.1)">
       <use xlink:href="#DejaVuSans-31"/>
       <use x="63.623047" xlink:href="#DejaVuSans-34"/>
      </g>
     </g>
    </g>
   </g>
   <g id="patch_3">
    <path d="M 26.925 294.118125 
L 26.925 22.318125 
" style="fill:none;stroke:#000000;stroke-linecap:square;stroke-linejoin:miter;stroke-width:0.8;"/>
   </g>
   <g id="patch_4">
    <path d="M 331.288636 294.118125 
L 331.288636 22.318125 
" style="fill:none;stroke:#000000;stroke-linecap:square;stroke-linejoin:miter;stroke-width:0.8;"/>
   </g>
   <g id="patch_5">
    <path d="M 26.925 294.118125 
L 331.288636 294.118125 
" style="fill:none;stroke:#000000;stroke-linecap:square;stroke-linejoin:miter;stroke-width:0.8;"/>
   </g>
   <g id="patch_6">
    <path d="M 26.925 22.318125 
L 331.288636 22.318125 
" style="fill:none;stroke:#000000;stroke-linecap:square;stroke-linejoin:miter;stroke-width:0.8;"/>
   </g>
   <g id="text_15">
    <!-- Random Samples -->
    <g transform="translate(126.738068 16.318125)scale(0.12 -0.12)">
     <defs>
      <path d="M 2841 2188 
Q 3044 2119 3236 1894 
Q 3428 1669 3622 1275 
L 4263 0 
L 3584 0 
L 2988 1197 
Q 2756 1666 2539 1819 
Q 2322 1972 1947 1972 
L 1259 1972 
L 1259 0 
L 628 0 
L 628 4666 
L 2053 4666 
Q 2853 4666 3247 4331 
Q 3641 3997 3641 3322 
Q 3641 2881 3436 2590 
Q 3231 2300 2841 2188 
z
M 1259 4147 
L 1259 2491 
L 2053 2491 
Q 2509 2491 2742 2702 
Q 2975 2913 2975 3322 
Q 2975 3731 2742 3939 
Q 2509 4147 2053 4147 
L 1259 4147 
z
" id="DejaVuSans-52" transform="scale(0.015625)"/>
      <path d="M 2194 1759 
Q 1497 1759 1228 1600 
Q 959 1441 959 1056 
Q 959 750 1161 570 
Q 1363 391 1709 391 
Q 2188 391 2477 730 
Q 2766 1069 2766 1631 
L 2766 1759 
L 2194 1759 
z
M 3341 1997 
L 3341 0 
L 2766 0 
L 2766 531 
Q 2569 213 2275 61 
Q 1981 -91 1556 -91 
Q 1019 -91 701 211 
Q 384 513 384 1019 
Q 384 1609 779 1909 
Q 1175 2209 1959 2209 
L 2766 2209 
L 2766 2266 
Q 2766 2663 2505 2880 
Q 2244 3097 1772 3097 
Q 1472 3097 1187 3025 
Q 903 2953 641 2809 
L 641 3341 
Q 956 3463 1253 3523 
Q 1550 3584 1831 3584 
Q 2591 3584 2966 3190 
Q 3341 2797 3341 1997 
z
" id="DejaVuSans-61" transform="scale(0.015625)"/>
      <path d="M 3513 2113 
L 3513 0 
L 2938 0 
L 2938 2094 
Q 2938 2591 2744 2837 
Q 2550 3084 2163 3084 
Q 1697 3084 1428 2787 
Q 1159 2491 1159 1978 
L 1159 0 
L 581 0 
L 581 3500 
L 1159 3500 
L 1159 2956 
Q 1366 3272 1645 3428 
Q 1925 3584 2291 3584 
Q 2894 3584 3203 3211 
Q 3513 2838 3513 2113 
z
" id="DejaVuSans-6e" transform="scale(0.015625)"/>
      <path d="M 2906 2969 
L 2906 4863 
L 3481 4863 
L 3481 0 
L 2906 0 
L 2906 525 
Q 2725 213 2448 61 
Q 2172 -91 1784 -91 
Q 1150 -91 751 415 
Q 353 922 353 1747 
Q 353 2572 751 3078 
Q 1150 3584 1784 3584 
Q 2172 3584 2448 3432 
Q 2725 3281 2906 2969 
z
M 947 1747 
Q 947 1113 1208 752 
Q 1469 391 1925 391 
Q 2381 391 2643 752 
Q 2906 1113 2906 1747 
Q 2906 2381 2643 2742 
Q 2381 3103 1925 3103 
Q 1469 3103 1208 2742 
Q 947 2381 947 1747 
z
" id="DejaVuSans-64" transform="scale(0.015625)"/>
      <path d="M 1959 3097 
Q 1497 3097 1228 2736 
Q 959 2375 959 1747 
Q 959 1119 1226 758 
Q 1494 397 1959 397 
Q 2419 397 2687 759 
Q 2956 1122 2956 1747 
Q 2956 2369 2687 2733 
Q 2419 3097 1959 3097 
z
M 1959 3584 
Q 2709 3584 3137 3096 
Q 3566 2609 3566 1747 
Q 3566 888 3137 398 
Q 2709 -91 1959 -91 
Q 1206 -91 779 398 
Q 353 888 353 1747 
Q 353 2609 779 3096 
Q 1206 3584 1959 3584 
z
" id="DejaVuSans-6f" transform="scale(0.015625)"/>
      <path d="M 3328 2828 
Q 3544 3216 3844 3400 
Q 4144 3584 4550 3584 
Q 5097 3584 5394 3201 
Q 5691 2819 5691 2113 
L 5691 0 
L 5113 0 
L 5113 2094 
Q 5113 2597 4934 2840 
Q 4756 3084 4391 3084 
Q 3944 3084 3684 2787 
Q 3425 2491 3425 1978 
L 3425 0 
L 2847 0 
L 2847 2094 
Q 2847 2600 2669 2842 
Q 2491 3084 2119 3084 
Q 1678 3084 1418 2786 
Q 1159 2488 1159 1978 
L 1159 0 
L 581 0 
L 581 3500 
L 1159 3500 
L 1159 2956 
Q 1356 3278 1631 3431 
Q 1906 3584 2284 3584 
Q 2666 3584 2933 3390 
Q 3200 3197 3328 2828 
z
" id="DejaVuSans-6d" transform="scale(0.015625)"/>
      <path id="DejaVuSans-20" transform="scale(0.015625)"/>
      <path d="M 3425 4513 
L 3425 3897 
Q 3066 4069 2747 4153 
Q 2428 4238 2131 4238 
Q 1616 4238 1336 4038 
Q 1056 3838 1056 3469 
Q 1056 3159 1242 3001 
Q 1428 2844 1947 2747 
L 2328 2669 
Q 3034 2534 3370 2195 
Q 3706 1856 3706 1288 
Q 3706 609 3251 259 
Q 2797 -91 1919 -91 
Q 1588 -91 1214 -16 
Q 841 59 441 206 
L 441 856 
Q 825 641 1194 531 
Q 1563 422 1919 422 
Q 2459 422 2753 634 
Q 3047 847 3047 1241 
Q 3047 1584 2836 1778 
Q 2625 1972 2144 2069 
L 1759 2144 
Q 1053 2284 737 2584 
Q 422 2884 422 3419 
Q 422 4038 858 4394 
Q 1294 4750 2059 4750 
Q 2388 4750 2728 4690 
Q 3069 4631 3425 4513 
z
" id="DejaVuSans-53" transform="scale(0.015625)"/>
      <path d="M 1159 525 
L 1159 -1331 
L 581 -1331 
L 581 3500 
L 1159 3500 
L 1159 2969 
Q 1341 3281 1617 3432 
Q 1894 3584 2278 3584 
Q 2916 3584 3314 3078 
Q 3713 2572 3713 1747 
Q 3713 922 3314 415 
Q 2916 -91 2278 -91 
Q 1894 -91 1617 61 
Q 1341 213 1159 525 
z
M 3116 1747 
Q 3116 2381 2855 2742 
Q 2594 3103 2138 3103 
Q 1681 3103 1420 2742 
Q 1159 2381 1159 1747 
Q 1159 1113 1420 752 
Q 1681 391 2138 391 
Q 2594 391 2855 752 
Q 3116 1113 3116 1747 
z
" id="DejaVuSans-70" transform="scale(0.015625)"/>
      <path d="M 603 4863 
L 1178 4863 
L 1178 0 
L 603 0 
L 603 4863 
z
" id="DejaVuSans-6c" transform="scale(0.015625)"/>
      <path d="M 3597 1894 
L 3597 1613 
L 953 1613 
Q 991 1019 1311 708 
Q 1631 397 2203 397 
Q 2534 397 2845 478 
Q 3156 559 3463 722 
L 3463 178 
Q 3153 47 2828 -22 
Q 2503 -91 2169 -91 
Q 1331 -91 842 396 
Q 353 884 353 1716 
Q 353 2575 817 3079 
Q 1281 3584 2069 3584 
Q 2775 3584 3186 3129 
Q 3597 2675 3597 1894 
z
M 3022 2063 
Q 3016 2534 2758 2815 
Q 2500 3097 2075 3097 
Q 1594 3097 1305 2825 
Q 1016 2553 972 2059 
L 3022 2063 
z
" id="DejaVuSans-65" transform="scale(0.015625)"/>
      <path d="M 2834 3397 
L 2834 2853 
Q 2591 2978 2328 3040 
Q 2066 3103 1784 3103 
Q 1356 3103 1142 2972 
Q 928 2841 928 2578 
Q 928 2378 1081 2264 
Q 1234 2150 1697 2047 
L 1894 2003 
Q 2506 1872 2764 1633 
Q 3022 1394 3022 966 
Q 3022 478 2636 193 
Q 2250 -91 1575 -91 
Q 1294 -91 989 -36 
Q 684 19 347 128 
L 347 722 
Q 666 556 975 473 
Q 1284 391 1588 391 
Q 1994 391 2212 530 
Q 2431 669 2431 922 
Q 2431 1156 2273 1281 
Q 2116 1406 1581 1522 
L 1381 1569 
Q 847 1681 609 1914 
Q 372 2147 372 2553 
Q 372 3047 722 3315 
Q 1072 3584 1716 3584 
Q 2034 3584 2315 3537 
Q 2597 3491 2834 3397 
z
" id="DejaVuSans-73" transform="scale(0.015625)"/>
     </defs>
     <use xlink:href="#DejaVuSans-52"/>
     <use x="67.232422" xlink:href="#DejaVuSans-61"/>
     <use x="128.511719" xlink:href="#DejaVuSans-6e"/>
     <use x="191.890625" xlink:href="#DejaVuSans-64"/>
     <use x="255.367188" xlink:href="#DejaVuSans-6f"/>
     <use x="316.548828" xlink:href="#DejaVuSans-6d"/>
     <use x="413.960938" xlink:href="#DejaVuSans-20"/>
     <use x="445.748047" xlink:href="#DejaVuSans-53"/>
     <use x="509.224609" xlink:href="#DejaVuSans-61"/>
     <use x="570.503906" xlink:href="#DejaVuSans-6d"/>
     <use x="667.916016" xlink:href="#DejaVuSans-70"/>
     <use x="731.392578" xlink:href="#DejaVuSans-6c"/>
     <use x="759.175781" xlink:href="#DejaVuSans-65"/>
     <use x="820.699219" xlink:href="#DejaVuSans-73"/>
    </g>
   </g>
   <g id="legend_1">
    <g id="patch_7">
     <path d="M 35.325 49.531875 
L 124.9725 49.531875 
Q 127.3725 49.531875 127.3725 47.131875 
L 127.3725 30.718125 
Q 127.3725 28.318125 124.9725 28.318125 
L 35.325 28.318125 
Q 32.925 28.318125 32.925 30.718125 
L 32.925 47.131875 
Q 32.925 49.531875 35.325 49.531875 
z
" style="fill:#ffffff;opacity:0.8;stroke:#cccccc;stroke-linejoin:miter;"/>
    </g>
    <g id="PathCollection_2">
     <g>
      <use style="fill:#1f77b4;stroke:#1f77b4;" x="49.725" xlink:href="#mcc5137eb0b" y="39.08625"/>
     </g>
    </g>
    <g id="text_16">
     <!-- Samples -->
     <g transform="translate(71.325 42.23625)scale(0.12 -0.12)">
      <use xlink:href="#DejaVuSans-53"/>
      <use x="63.476562" xlink:href="#DejaVuSans-61"/>
      <use x="124.755859" xlink:href="#DejaVuSans-6d"/>
      <use x="222.167969" xlink:href="#DejaVuSans-70"/>
      <use x="285.644531" xlink:href="#DejaVuSans-6c"/>
      <use x="313.427734" xlink:href="#DejaVuSans-65"/>
      <use x="374.951172" xlink:href="#DejaVuSans-73"/>
     </g>
    </g>
   </g>
  </g>
  <g id="axes_2">
   <g id="patch_8">
    <path d="M 392.161364 294.118125 
L 696.525 294.118125 
L 696.525 22.318125 
L 392.161364 22.318125 
z
" style="fill:#ffffff;"/>
   </g>
   <g id="PathCollection_3">
    <g clip-path="url(#pb527d40732)">
     <use style="fill:#1f77b4;stroke:#1f77b4;" x="411.590388" xlink:href="#mcc5137eb0b" y="267.868034"/>
     <use style="fill:#1f77b4;stroke:#1f77b4;" x="425.651341" xlink:href="#mcc5137eb0b" y="271.852142"/>
     <use style="fill:#1f77b4;stroke:#1f77b4;" x="430.104248" xlink:href="#mcc5137eb0b" y="236.866566"/>
     <use style="fill:#1f77b4;stroke:#1f77b4;" x="438.721924" xlink:href="#mcc5137eb0b" y="267.5124"/>
     <use style="fill:#1f77b4;stroke:#1f77b4;" x="445.6611" xlink:href="#mcc5137eb0b" y="245.871181"/>
     <use style="fill:#1f77b4;stroke:#1f77b4;" x="512.092124" xlink:href="#mcc5137eb0b" y="188.945809"/>
     <use style="fill:#1f77b4;stroke:#1f77b4;" x="520.730634" xlink:href="#mcc5137eb0b" y="163.523725"/>
     <use style="fill:#1f77b4;stroke:#1f77b4;" x="523.218906" xlink:href="#mcc5137eb0b" y="161.954614"/>
     <use style="fill:#1f77b4;stroke:#1f77b4;" x="527.073924" xlink:href="#mcc5137eb0b" y="172.044504"/>
     <use style="fill:#1f77b4;stroke:#1f77b4;" x="533.684744" xlink:href="#mcc5137eb0b" y="163.842869"/>
     <use style="fill:#1f77b4;stroke:#1f77b4;" x="550.388486" xlink:href="#mcc5137eb0b" y="161.959761"/>
     <use style="fill:#1f77b4;stroke:#1f77b4;" x="552.338239" xlink:href="#mcc5137eb0b" y="171.471653"/>
     <use style="fill:#1f77b4;stroke:#1f77b4;" x="556.762099" xlink:href="#mcc5137eb0b" y="150.709812"/>
     <use style="fill:#1f77b4;stroke:#1f77b4;" x="557.849596" xlink:href="#mcc5137eb0b" y="144.547068"/>
     <use style="fill:#1f77b4;stroke:#1f77b4;" x="563.170718" xlink:href="#mcc5137eb0b" y="128.738531"/>
     <use style="fill:#1f77b4;stroke:#1f77b4;" x="572.777213" xlink:href="#mcc5137eb0b" y="120.447182"/>
     <use style="fill:#1f77b4;stroke:#1f77b4;" x="583.058519" xlink:href="#mcc5137eb0b" y="127.632618"/>
     <use style="fill:#1f77b4;stroke:#1f77b4;" x="584.711239" xlink:href="#mcc5137eb0b" y="125.28136"/>
     <use style="fill:#1f77b4;stroke:#1f77b4;" x="603.884835" xlink:href="#mcc5137eb0b" y="115.842118"/>
     <use style="fill:#1f77b4;stroke:#1f77b4;" x="621.307546" xlink:href="#mcc5137eb0b" y="104.107851"/>
     <use style="fill:#1f77b4;stroke:#1f77b4;" x="621.963982" xlink:href="#mcc5137eb0b" y="106.468743"/>
     <use style="fill:#1f77b4;stroke:#1f77b4;" x="625.061812" xlink:href="#mcc5137eb0b" y="66.051401"/>
     <use style="fill:#1f77b4;stroke:#1f77b4;" x="627.118626" xlink:href="#mcc5137eb0b" y="89.545864"/>
     <use style="fill:#1f77b4;stroke:#1f77b4;" x="636.377169" xlink:href="#mcc5137eb0b" y="80.540959"/>
     <use style="fill:#1f77b4;stroke:#1f77b4;" x="646.723403" xlink:href="#mcc5137eb0b" y="79.689585"/>
     <use style="fill:#1f77b4;stroke:#1f77b4;" x="652.744505" xlink:href="#mcc5137eb0b" y="53.409961"/>
     <use style="fill:#1f77b4;stroke:#1f77b4;" x="662.10331" xlink:href="#mcc5137eb0b" y="69.672877"/>
     <use style="fill:#1f77b4;stroke:#1f77b4;" x="667.380499" xlink:href="#mcc5137eb0b" y="50.534736"/>
     <use style="fill:#1f77b4;stroke:#1f77b4;" x="672.635985" xlink:href="#mcc5137eb0b" y="52.870507"/>
     <use style="fill:#1f77b4;stroke:#1f77b4;" x="676.774108" xlink:href="#mcc5137eb0b" y="35.972547"/>
    </g>
   </g>
   <g id="matplotlib.axis_3">
    <g id="xtick_8">
     <g id="line2d_27">
      <path clip-path="url(#pb527d40732)" d="M 405.996074 294.118125 
L 405.996074 22.318125 
" style="fill:none;stroke:#b0b0b0;stroke-linecap:square;stroke-width:0.8;"/>
     </g>
     <g id="line2d_28">
      <g>
       <use style="stroke:#000000;stroke-width:0.8;" x="405.996074" xlink:href="#medc381ebbc" y="294.118125"/>
      </g>
     </g>
     <g id="text_17">
      <!-- 0 -->
      <g transform="translate(402.814824 308.716563)scale(0.1 -0.1)">
       <use xlink:href="#DejaVuSans-30"/>
      </g>
     </g>
    </g>
    <g id="xtick_9">
     <g id="line2d_29">
      <path clip-path="url(#pb527d40732)" d="M 452.111777 294.118125 
L 452.111777 22.318125 
" style="fill:none;stroke:#b0b0b0;stroke-linecap:square;stroke-width:0.8;"/>
     </g>
     <g id="line2d_30">
      <g>
       <use style="stroke:#000000;stroke-width:0.8;" x="452.111777" xlink:href="#medc381ebbc" y="294.118125"/>
      </g>
     </g>
     <g id="text_18">
      <!-- 1 -->
      <g transform="translate(448.930527 308.716563)scale(0.1 -0.1)">
       <use xlink:href="#DejaVuSans-31"/>
      </g>
     </g>
    </g>
    <g id="xtick_10">
     <g id="line2d_31">
      <path clip-path="url(#pb527d40732)" d="M 498.227479 294.118125 
L 498.227479 22.318125 
" style="fill:none;stroke:#b0b0b0;stroke-linecap:square;stroke-width:0.8;"/>
     </g>
     <g id="line2d_32">
      <g>
       <use style="stroke:#000000;stroke-width:0.8;" x="498.227479" xlink:href="#medc381ebbc" y="294.118125"/>
      </g>
     </g>
     <g id="text_19">
      <!-- 2 -->
      <g transform="translate(495.046229 308.716563)scale(0.1 -0.1)">
       <use xlink:href="#DejaVuSans-32"/>
      </g>
     </g>
    </g>
    <g id="xtick_11">
     <g id="line2d_33">
      <path clip-path="url(#pb527d40732)" d="M 544.343182 294.118125 
L 544.343182 22.318125 
" style="fill:none;stroke:#b0b0b0;stroke-linecap:square;stroke-width:0.8;"/>
     </g>
     <g id="line2d_34">
      <g>
       <use style="stroke:#000000;stroke-width:0.8;" x="544.343182" xlink:href="#medc381ebbc" y="294.118125"/>
      </g>
     </g>
     <g id="text_20">
      <!-- 3 -->
      <g transform="translate(541.161932 308.716563)scale(0.1 -0.1)">
       <use xlink:href="#DejaVuSans-33"/>
      </g>
     </g>
    </g>
    <g id="xtick_12">
     <g id="line2d_35">
      <path clip-path="url(#pb527d40732)" d="M 590.458884 294.118125 
L 590.458884 22.318125 
" style="fill:none;stroke:#b0b0b0;stroke-linecap:square;stroke-width:0.8;"/>
     </g>
     <g id="line2d_36">
      <g>
       <use style="stroke:#000000;stroke-width:0.8;" x="590.458884" xlink:href="#medc381ebbc" y="294.118125"/>
      </g>
     </g>
     <g id="text_21">
      <!-- 4 -->
      <g transform="translate(587.277634 308.716563)scale(0.1 -0.1)">
       <use xlink:href="#DejaVuSans-34"/>
      </g>
     </g>
    </g>
    <g id="xtick_13">
     <g id="line2d_37">
      <path clip-path="url(#pb527d40732)" d="M 636.574587 294.118125 
L 636.574587 22.318125 
" style="fill:none;stroke:#b0b0b0;stroke-linecap:square;stroke-width:0.8;"/>
     </g>
     <g id="line2d_38">
      <g>
       <use style="stroke:#000000;stroke-width:0.8;" x="636.574587" xlink:href="#medc381ebbc" y="294.118125"/>
      </g>
     </g>
     <g id="text_22">
      <!-- 5 -->
      <g transform="translate(633.393337 308.716563)scale(0.1 -0.1)">
       <use xlink:href="#DejaVuSans-35"/>
      </g>
     </g>
    </g>
    <g id="xtick_14">
     <g id="line2d_39">
      <path clip-path="url(#pb527d40732)" d="M 682.690289 294.118125 
L 682.690289 22.318125 
" style="fill:none;stroke:#b0b0b0;stroke-linecap:square;stroke-width:0.8;"/>
     </g>
     <g id="line2d_40">
      <g>
       <use style="stroke:#000000;stroke-width:0.8;" x="682.690289" xlink:href="#medc381ebbc" y="294.118125"/>
      </g>
     </g>
     <g id="text_23">
      <!-- 6 -->
      <g transform="translate(679.509039 308.716563)scale(0.1 -0.1)">
       <use xlink:href="#DejaVuSans-36"/>
      </g>
     </g>
    </g>
    <g id="text_24">
     <!-- x -->
     <g transform="translate(541.383807 322.394687)scale(0.1 -0.1)">
      <use xlink:href="#DejaVuSans-78"/>
     </g>
    </g>
   </g>
   <g id="matplotlib.axis_4">
    <g id="ytick_7">
     <g id="line2d_41">
      <path clip-path="url(#pb527d40732)" d="M 392.161364 261.17267 
L 696.525 261.17267 
" style="fill:none;stroke:#b0b0b0;stroke-linecap:square;stroke-width:0.8;"/>
     </g>
     <g id="line2d_42">
      <g>
       <use style="stroke:#000000;stroke-width:0.8;" x="392.161364" xlink:href="#m967f2d7ad1" y="261.17267"/>
      </g>
     </g>
     <g id="text_25">
      <!-- 4 -->
      <g transform="translate(378.798864 264.971889)scale(0.1 -0.1)">
       <use xlink:href="#DejaVuSans-34"/>
      </g>
     </g>
    </g>
    <g id="ytick_8">
     <g id="line2d_43">
      <path clip-path="url(#pb527d40732)" d="M 392.161364 219.990852 
L 696.525 219.990852 
" style="fill:none;stroke:#b0b0b0;stroke-linecap:square;stroke-width:0.8;"/>
     </g>
     <g id="line2d_44">
      <g>
       <use style="stroke:#000000;stroke-width:0.8;" x="392.161364" xlink:href="#m967f2d7ad1" y="219.990852"/>
      </g>
     </g>
     <g id="text_26">
      <!-- 6 -->
      <g transform="translate(378.798864 223.790071)scale(0.1 -0.1)">
       <use xlink:href="#DejaVuSans-36"/>
      </g>
     </g>
    </g>
    <g id="ytick_9">
     <g id="line2d_45">
      <path clip-path="url(#pb527d40732)" d="M 392.161364 178.809034 
L 696.525 178.809034 
" style="fill:none;stroke:#b0b0b0;stroke-linecap:square;stroke-width:0.8;"/>
     </g>
     <g id="line2d_46">
      <g>
       <use style="stroke:#000000;stroke-width:0.8;" x="392.161364" xlink:href="#m967f2d7ad1" y="178.809034"/>
      </g>
     </g>
     <g id="text_27">
      <!-- 8 -->
      <g transform="translate(378.798864 182.608253)scale(0.1 -0.1)">
       <use xlink:href="#DejaVuSans-38"/>
      </g>
     </g>
    </g>
    <g id="ytick_10">
     <g id="line2d_47">
      <path clip-path="url(#pb527d40732)" d="M 392.161364 137.627216 
L 696.525 137.627216 
" style="fill:none;stroke:#b0b0b0;stroke-linecap:square;stroke-width:0.8;"/>
     </g>
     <g id="line2d_48">
      <g>
       <use style="stroke:#000000;stroke-width:0.8;" x="392.161364" xlink:href="#m967f2d7ad1" y="137.627216"/>
      </g>
     </g>
     <g id="text_28">
      <!-- 10 -->
      <g transform="translate(372.436364 141.426435)scale(0.1 -0.1)">
       <use xlink:href="#DejaVuSans-31"/>
       <use x="63.623047" xlink:href="#DejaVuSans-30"/>
      </g>
     </g>
    </g>
    <g id="ytick_11">
     <g id="line2d_49">
      <path clip-path="url(#pb527d40732)" d="M 392.161364 96.445398 
L 696.525 96.445398 
" style="fill:none;stroke:#b0b0b0;stroke-linecap:square;stroke-width:0.8;"/>
     </g>
     <g id="line2d_50">
      <g>
       <use style="stroke:#000000;stroke-width:0.8;" x="392.161364" xlink:href="#m967f2d7ad1" y="96.445398"/>
      </g>
     </g>
     <g id="text_29">
      <!-- 12 -->
      <g transform="translate(372.436364 100.244616)scale(0.1 -0.1)">
       <use xlink:href="#DejaVuSans-31"/>
       <use x="63.623047" xlink:href="#DejaVuSans-32"/>
      </g>
     </g>
    </g>
    <g id="ytick_12">
     <g id="line2d_51">
      <path clip-path="url(#pb527d40732)" d="M 392.161364 55.26358 
L 696.525 55.26358 
" style="fill:none;stroke:#b0b0b0;stroke-linecap:square;stroke-width:0.8;"/>
     </g>
     <g id="line2d_52">
      <g>
       <use style="stroke:#000000;stroke-width:0.8;" x="392.161364" xlink:href="#m967f2d7ad1" y="55.26358"/>
      </g>
     </g>
     <g id="text_30">
      <!-- 14 -->
      <g transform="translate(372.436364 59.062798)scale(0.1 -0.1)">
       <use xlink:href="#DejaVuSans-31"/>
       <use x="63.623047" xlink:href="#DejaVuSans-34"/>
      </g>
     </g>
    </g>
    <g id="text_31">
     <!-- y -->
     <g transform="translate(366.356676 161.1775)rotate(-90)scale(0.1 -0.1)">
      <defs>
       <path d="M 2059 -325 
Q 1816 -950 1584 -1140 
Q 1353 -1331 966 -1331 
L 506 -1331 
L 506 -850 
L 844 -850 
Q 1081 -850 1212 -737 
Q 1344 -625 1503 -206 
L 1606 56 
L 191 3500 
L 800 3500 
L 1894 763 
L 2988 3500 
L 3597 3500 
L 2059 -325 
z
" id="DejaVuSans-79" transform="scale(0.015625)"/>
      </defs>
      <use xlink:href="#DejaVuSans-79"/>
     </g>
    </g>
   </g>
   <g id="line2d_53">
    <path clip-path="url(#pb527d40732)" d="M 405.996074 281.76358 
L 408.790965 279.267712 
L 411.585856 276.771844 
L 414.380748 274.275976 
L 417.175639 271.780108 
L 419.97053 269.284241 
L 422.765421 266.788373 
L 425.560312 264.292505 
L 428.355203 261.796637 
L 431.150094 259.30077 
L 433.944985 256.804902 
L 436.739876 254.309034 
L 439.534767 251.813166 
L 442.329658 249.317299 
L 445.124549 246.821431 
L 447.91944 244.325563 
L 450.714331 241.829695 
L 453.509222 239.333827 
L 456.304113 236.83796 
L 459.099005 234.342092 
L 461.893896 231.846224 
L 464.688787 229.350356 
L 467.483678 226.854489 
L 470.278569 224.358621 
L 473.07346 221.862753 
L 475.868351 219.366885 
L 478.663242 216.871018 
L 481.458133 214.37515 
L 484.253024 211.879282 
L 487.047915 209.383414 
L 489.842806 206.887546 
L 492.637697 204.391679 
L 495.432588 201.895811 
L 498.227479 199.399943 
L 501.02237 196.904075 
L 503.817261 194.408208 
L 506.612153 191.91234 
L 509.407044 189.416472 
L 512.201935 186.920604 
L 514.996826 184.424737 
L 517.791717 181.928869 
L 520.586608 179.433001 
L 523.381499 176.937133 
L 526.17639 174.441265 
L 528.971281 171.945398 
L 531.766172 169.44953 
L 534.561063 166.953662 
L 537.355954 164.457794 
L 540.150845 161.961927 
L 542.945736 159.466059 
L 545.740627 156.970191 
L 548.535518 154.474323 
L 551.330409 151.978456 
L 554.125301 149.482588 
L 556.920192 146.98672 
L 559.715083 144.490852 
L 562.509974 141.994985 
L 565.304865 139.499117 
L 568.099756 137.003249 
L 570.894647 134.507381 
L 573.689538 132.011513 
L 576.484429 129.515646 
L 579.27932 127.019778 
L 582.074211 124.52391 
L 584.869102 122.028042 
L 587.663993 119.532175 
L 590.458884 117.036307 
L 593.253775 114.540439 
L 596.048666 112.044571 
L 598.843557 109.548704 
L 601.638449 107.052836 
L 604.43334 104.556968 
L 607.228231 102.0611 
L 610.023122 99.565232 
L 612.818013 97.069365 
L 615.612904 94.573497 
L 618.407795 92.077629 
L 621.202686 89.581761 
L 623.997577 87.085894 
L 626.792468 84.590026 
L 629.587359 82.094158 
L 632.38225 79.59829 
L 635.177141 77.102423 
L 637.972032 74.606555 
L 640.766923 72.110687 
L 643.561814 69.614819 
L 646.356705 67.118951 
L 649.151597 64.623084 
L 651.946488 62.127216 
L 654.741379 59.631348 
L 657.53627 57.13548 
L 660.331161 54.639613 
L 663.126052 52.143745 
L 665.920943 49.647877 
L 668.715834 47.152009 
L 671.510725 44.656142 
L 674.305616 42.160274 
L 677.100507 39.664406 
L 679.895398 37.168538 
L 682.690289 34.67267 
" style="fill:none;stroke:#ff0000;stroke-linecap:square;stroke-width:1.5;"/>
   </g>
   <g id="patch_9">
    <path d="M 392.161364 294.118125 
L 392.161364 22.318125 
" style="fill:none;stroke:#000000;stroke-linecap:square;stroke-linejoin:miter;stroke-width:0.8;"/>
   </g>
   <g id="patch_10">
    <path d="M 696.525 294.118125 
L 696.525 22.318125 
" style="fill:none;stroke:#000000;stroke-linecap:square;stroke-linejoin:miter;stroke-width:0.8;"/>
   </g>
   <g id="patch_11">
    <path d="M 392.161364 294.118125 
L 696.525 294.118125 
" style="fill:none;stroke:#000000;stroke-linecap:square;stroke-linejoin:miter;stroke-width:0.8;"/>
   </g>
   <g id="patch_12">
    <path d="M 392.161364 22.318125 
L 696.525 22.318125 
" style="fill:none;stroke:#000000;stroke-linecap:square;stroke-linejoin:miter;stroke-width:0.8;"/>
   </g>
   <g id="text_32">
    <!-- Fitting Curve -->
    <g transform="translate(506.068807 16.318125)scale(0.12 -0.12)">
     <defs>
      <path d="M 628 4666 
L 3309 4666 
L 3309 4134 
L 1259 4134 
L 1259 2759 
L 3109 2759 
L 3109 2228 
L 1259 2228 
L 1259 0 
L 628 0 
L 628 4666 
z
" id="DejaVuSans-46" transform="scale(0.015625)"/>
      <path d="M 603 3500 
L 1178 3500 
L 1178 0 
L 603 0 
L 603 3500 
z
M 603 4863 
L 1178 4863 
L 1178 4134 
L 603 4134 
L 603 4863 
z
" id="DejaVuSans-69" transform="scale(0.015625)"/>
      <path d="M 1172 4494 
L 1172 3500 
L 2356 3500 
L 2356 3053 
L 1172 3053 
L 1172 1153 
Q 1172 725 1289 603 
Q 1406 481 1766 481 
L 2356 481 
L 2356 0 
L 1766 0 
Q 1100 0 847 248 
Q 594 497 594 1153 
L 594 3053 
L 172 3053 
L 172 3500 
L 594 3500 
L 594 4494 
L 1172 4494 
z
" id="DejaVuSans-74" transform="scale(0.015625)"/>
      <path d="M 2906 1791 
Q 2906 2416 2648 2759 
Q 2391 3103 1925 3103 
Q 1463 3103 1205 2759 
Q 947 2416 947 1791 
Q 947 1169 1205 825 
Q 1463 481 1925 481 
Q 2391 481 2648 825 
Q 2906 1169 2906 1791 
z
M 3481 434 
Q 3481 -459 3084 -895 
Q 2688 -1331 1869 -1331 
Q 1566 -1331 1297 -1286 
Q 1028 -1241 775 -1147 
L 775 -588 
Q 1028 -725 1275 -790 
Q 1522 -856 1778 -856 
Q 2344 -856 2625 -561 
Q 2906 -266 2906 331 
L 2906 616 
Q 2728 306 2450 153 
Q 2172 0 1784 0 
Q 1141 0 747 490 
Q 353 981 353 1791 
Q 353 2603 747 3093 
Q 1141 3584 1784 3584 
Q 2172 3584 2450 3431 
Q 2728 3278 2906 2969 
L 2906 3500 
L 3481 3500 
L 3481 434 
z
" id="DejaVuSans-67" transform="scale(0.015625)"/>
      <path d="M 4122 4306 
L 4122 3641 
Q 3803 3938 3442 4084 
Q 3081 4231 2675 4231 
Q 1875 4231 1450 3742 
Q 1025 3253 1025 2328 
Q 1025 1406 1450 917 
Q 1875 428 2675 428 
Q 3081 428 3442 575 
Q 3803 722 4122 1019 
L 4122 359 
Q 3791 134 3420 21 
Q 3050 -91 2638 -91 
Q 1578 -91 968 557 
Q 359 1206 359 2328 
Q 359 3453 968 4101 
Q 1578 4750 2638 4750 
Q 3056 4750 3426 4639 
Q 3797 4528 4122 4306 
z
" id="DejaVuSans-43" transform="scale(0.015625)"/>
      <path d="M 544 1381 
L 544 3500 
L 1119 3500 
L 1119 1403 
Q 1119 906 1312 657 
Q 1506 409 1894 409 
Q 2359 409 2629 706 
Q 2900 1003 2900 1516 
L 2900 3500 
L 3475 3500 
L 3475 0 
L 2900 0 
L 2900 538 
Q 2691 219 2414 64 
Q 2138 -91 1772 -91 
Q 1169 -91 856 284 
Q 544 659 544 1381 
z
M 1991 3584 
L 1991 3584 
z
" id="DejaVuSans-75" transform="scale(0.015625)"/>
      <path d="M 2631 2963 
Q 2534 3019 2420 3045 
Q 2306 3072 2169 3072 
Q 1681 3072 1420 2755 
Q 1159 2438 1159 1844 
L 1159 0 
L 581 0 
L 581 3500 
L 1159 3500 
L 1159 2956 
Q 1341 3275 1631 3429 
Q 1922 3584 2338 3584 
Q 2397 3584 2469 3576 
Q 2541 3569 2628 3553 
L 2631 2963 
z
" id="DejaVuSans-72" transform="scale(0.015625)"/>
      <path d="M 191 3500 
L 800 3500 
L 1894 563 
L 2988 3500 
L 3597 3500 
L 2284 0 
L 1503 0 
L 191 3500 
z
" id="DejaVuSans-76" transform="scale(0.015625)"/>
     </defs>
     <use xlink:href="#DejaVuSans-46"/>
     <use x="50.269531" xlink:href="#DejaVuSans-69"/>
     <use x="78.052734" xlink:href="#DejaVuSans-74"/>
     <use x="117.261719" xlink:href="#DejaVuSans-74"/>
     <use x="156.470703" xlink:href="#DejaVuSans-69"/>
     <use x="184.253906" xlink:href="#DejaVuSans-6e"/>
     <use x="247.632812" xlink:href="#DejaVuSans-67"/>
     <use x="311.109375" xlink:href="#DejaVuSans-20"/>
     <use x="342.896484" xlink:href="#DejaVuSans-43"/>
     <use x="412.720703" xlink:href="#DejaVuSans-75"/>
     <use x="476.099609" xlink:href="#DejaVuSans-72"/>
     <use x="517.212891" xlink:href="#DejaVuSans-76"/>
     <use x="576.392578" xlink:href="#DejaVuSans-65"/>
    </g>
   </g>
   <g id="legend_2">
    <g id="patch_13">
     <path d="M 400.561364 67.145625 
L 490.208864 67.145625 
Q 492.608864 67.145625 492.608864 64.745625 
L 492.608864 30.718125 
Q 492.608864 28.318125 490.208864 28.318125 
L 400.561364 28.318125 
Q 398.161364 28.318125 398.161364 30.718125 
L 398.161364 64.745625 
Q 398.161364 67.145625 400.561364 67.145625 
z
" style="fill:#ffffff;opacity:0.8;stroke:#cccccc;stroke-linejoin:miter;"/>
    </g>
    <g id="line2d_54">
     <path d="M 402.961364 38.03625 
L 426.961364 38.03625 
" style="fill:none;stroke:#ff0000;stroke-linecap:square;stroke-width:1.5;"/>
    </g>
    <g id="line2d_55"/>
    <g id="text_33">
     <!-- y=2x+3 -->
     <g transform="translate(436.561364 42.23625)scale(0.12 -0.12)">
      <defs>
       <path d="M 678 2906 
L 4684 2906 
L 4684 2381 
L 678 2381 
L 678 2906 
z
M 678 1631 
L 4684 1631 
L 4684 1100 
L 678 1100 
L 678 1631 
z
" id="DejaVuSans-3d" transform="scale(0.015625)"/>
       <path d="M 2944 4013 
L 2944 2272 
L 4684 2272 
L 4684 1741 
L 2944 1741 
L 2944 0 
L 2419 0 
L 2419 1741 
L 678 1741 
L 678 2272 
L 2419 2272 
L 2419 4013 
L 2944 4013 
z
" id="DejaVuSans-2b" transform="scale(0.015625)"/>
      </defs>
      <use xlink:href="#DejaVuSans-79"/>
      <use x="59.179688" xlink:href="#DejaVuSans-3d"/>
      <use x="142.96875" xlink:href="#DejaVuSans-32"/>
      <use x="206.591797" xlink:href="#DejaVuSans-78"/>
      <use x="265.771484" xlink:href="#DejaVuSans-2b"/>
      <use x="349.560547" xlink:href="#DejaVuSans-33"/>
     </g>
    </g>
    <g id="PathCollection_4">
     <g>
      <use style="fill:#1f77b4;stroke:#1f77b4;" x="414.961364" xlink:href="#mcc5137eb0b" y="56.7"/>
     </g>
    </g>
    <g id="text_34">
     <!-- Samples -->
     <g transform="translate(436.561364 59.85)scale(0.12 -0.12)">
      <use xlink:href="#DejaVuSans-53"/>
      <use x="63.476562" xlink:href="#DejaVuSans-61"/>
      <use x="124.755859" xlink:href="#DejaVuSans-6d"/>
      <use x="222.167969" xlink:href="#DejaVuSans-70"/>
      <use x="285.644531" xlink:href="#DejaVuSans-6c"/>
      <use x="313.427734" xlink:href="#DejaVuSans-65"/>
      <use x="374.951172" xlink:href="#DejaVuSans-73"/>
     </g>
    </g>
   </g>
  </g>
 </g>
 <defs>
  <clipPath id="p1a5f271d5b">
   <rect height="271.8" width="304.363636" x="26.925" y="22.318125"/>
  </clipPath>
  <clipPath id="pb527d40732">
   <rect height="271.8" width="304.363636" x="392.161364" y="22.318125"/>
  </clipPath>
 </defs>
</svg>
